<mxfile host="65bd71144e">
    <diagram id="zVsVsS7wleitQ91phmRn" name="PÃ¡gina-1">
        <mxGraphModel dx="3559" dy="3665" grid="1" gridSize="10" guides="1" tooltips="1" connect="1" arrows="1" fold="1" page="1" pageScale="1" pageWidth="827" pageHeight="1169" math="0" shadow="0">
            <root>
                <mxCell id="0"/>
                <mxCell id="1" parent="0"/>
                <mxCell id="99" value="&lt;font style=&quot;font-size: 35px&quot;&gt;Models&lt;/font&gt;" style="shape=folder;fontStyle=1;spacingTop=10;tabWidth=40;tabHeight=14;tabPosition=left;html=1;strokeColor=#000000;strokeWidth=1;verticalAlign=top;align=center;fontSize=35;" vertex="1" parent="1">
                    <mxGeometry x="-481" y="-350" width="1790" height="1510" as="geometry"/>
                </mxCell>
                <mxCell id="100" value="Cinema" style="swimlane;fontStyle=1;align=center;verticalAlign=middle;childLayout=stackLayout;horizontal=1;startSize=26;horizontalStack=0;resizeParent=1;resizeParentMax=0;resizeLast=0;collapsible=1;marginBottom=0;fillColor=#1ba1e2;strokeColor=#000000;fontSize=17;fontColor=#ffffff;strokeWidth=2;fontFamily=Helvetica;" vertex="1" parent="1">
                    <mxGeometry x="-423" y="-250" width="408" height="254" as="geometry"/>
                </mxCell>
                <mxCell id="101" value="- nome: String" style="text;align=left;verticalAlign=top;spacingLeft=4;spacingRight=4;overflow=hidden;rotatable=0;points=[[0,0.5],[1,0.5]];portConstraint=eastwest;fontSize=14;" vertex="1" parent="100">
                    <mxGeometry y="26" width="408" height="26" as="geometry"/>
                </mxCell>
                <mxCell id="102" value="- cidade: String" style="text;align=left;verticalAlign=top;spacingLeft=4;spacingRight=4;overflow=hidden;rotatable=0;points=[[0,0.5],[1,0.5]];portConstraint=eastwest;fontSize=14;" vertex="1" parent="100">
                    <mxGeometry y="52" width="408" height="26" as="geometry"/>
                </mxCell>
                <mxCell id="103" value="" style="line;strokeWidth=2;align=left;verticalAlign=middle;spacingTop=-1;spacingLeft=3;spacingRight=3;rotatable=0;labelPosition=right;points=[];portConstraint=eastwest;fillColor=#fff2cc;strokeColor=#000000;fontSize=14;" vertex="1" parent="100">
                    <mxGeometry y="78" width="408" height="8" as="geometry"/>
                </mxCell>
                <mxCell id="104" value="+ Cinema(nome: String, cidade: String): void" style="text;align=left;verticalAlign=top;spacingLeft=4;spacingRight=4;overflow=hidden;rotatable=0;points=[[0,0.5],[1,0.5]];portConstraint=eastwest;fontSize=14;" vertex="1" parent="100">
                    <mxGeometry y="86" width="408" height="28" as="geometry"/>
                </mxCell>
                <mxCell id="105" value="+ getNome(): String" style="text;align=left;verticalAlign=top;spacingLeft=4;spacingRight=4;overflow=hidden;rotatable=0;points=[[0,0.5],[1,0.5]];portConstraint=eastwest;fontSize=14;" vertex="1" parent="100">
                    <mxGeometry y="114" width="408" height="28" as="geometry"/>
                </mxCell>
                <mxCell id="106" value="+ getCidade(): String" style="text;align=left;verticalAlign=top;spacingLeft=4;spacingRight=4;overflow=hidden;rotatable=0;points=[[0,0.5],[1,0.5]];portConstraint=eastwest;fontSize=14;" vertex="1" parent="100">
                    <mxGeometry y="142" width="408" height="28" as="geometry"/>
                </mxCell>
                <mxCell id="107" value="+ setNome(nome: String): void" style="text;align=left;verticalAlign=top;spacingLeft=4;spacingRight=4;overflow=hidden;rotatable=0;points=[[0,0.5],[1,0.5]];portConstraint=eastwest;fontSize=14;" vertex="1" parent="100">
                    <mxGeometry y="170" width="408" height="28" as="geometry"/>
                </mxCell>
                <mxCell id="108" value="+ setCidade(nome: String): void" style="text;align=left;verticalAlign=top;spacingLeft=4;spacingRight=4;overflow=hidden;rotatable=0;points=[[0,0.5],[1,0.5]];portConstraint=eastwest;fontSize=14;" vertex="1" parent="100">
                    <mxGeometry y="198" width="408" height="28" as="geometry"/>
                </mxCell>
                <mxCell id="109" value="+ toString(): String" style="text;align=left;verticalAlign=top;spacingLeft=4;spacingRight=4;overflow=hidden;rotatable=0;points=[[0,0.5],[1,0.5]];portConstraint=eastwest;fontSize=14;" vertex="1" parent="100">
                    <mxGeometry y="226" width="408" height="28" as="geometry"/>
                </mxCell>
                <mxCell id="110" value="Sala" style="swimlane;fontStyle=1;align=center;verticalAlign=middle;childLayout=stackLayout;horizontal=1;startSize=26;horizontalStack=0;resizeParent=1;resizeParentMax=0;resizeLast=0;collapsible=1;marginBottom=0;fillColor=#1ba1e2;strokeColor=#000000;fontSize=17;strokeWidth=2;fontColor=#ffffff;" vertex="1" parent="1">
                    <mxGeometry x="227" y="-250" width="527" height="336" as="geometry"/>
                </mxCell>
                <mxCell id="111" value="- id: int" style="text;align=left;verticalAlign=top;spacingLeft=4;spacingRight=4;overflow=hidden;rotatable=0;points=[[0,0.5],[1,0.5]];portConstraint=eastwest;fontSize=14;strokeColor=none;" vertex="1" parent="110">
                    <mxGeometry y="26" width="527" height="26" as="geometry"/>
                </mxCell>
                <mxCell id="112" value="- capacidade: int = 80" style="text;align=left;verticalAlign=top;spacingLeft=4;spacingRight=4;overflow=hidden;rotatable=0;points=[[0,0.5],[1,0.5]];portConstraint=eastwest;fontSize=14;" vertex="1" parent="110">
                    <mxGeometry y="52" width="527" height="26" as="geometry"/>
                </mxCell>
                <mxCell id="113" value="- filme: Filme" style="text;align=left;verticalAlign=top;spacingLeft=4;spacingRight=4;overflow=hidden;rotatable=0;points=[[0,0.5],[1,0.5]];portConstraint=eastwest;fontSize=14;" vertex="1" parent="110">
                    <mxGeometry y="78" width="527" height="26" as="geometry"/>
                </mxCell>
                <mxCell id="114" value="" style="line;strokeWidth=2;align=left;verticalAlign=middle;spacingTop=-1;spacingLeft=3;spacingRight=3;rotatable=0;labelPosition=right;points=[];portConstraint=eastwest;fontSize=14;sketch=0;shadow=0;labelBackgroundColor=none;labelBorderColor=none;noLabel=1;" vertex="1" parent="110">
                    <mxGeometry y="104" width="527" height="8" as="geometry"/>
                </mxCell>
                <mxCell id="115" value="+ Sala(id: int, capacidade: int, filme: Filme): void" style="text;align=left;verticalAlign=top;spacingLeft=4;spacingRight=4;overflow=hidden;rotatable=0;points=[[0,0.5],[1,0.5]];portConstraint=eastwest;fontSize=14;" vertex="1" parent="110">
                    <mxGeometry y="112" width="527" height="22" as="geometry"/>
                </mxCell>
                <mxCell id="116" value="+ Sala(id: int): void" style="text;align=left;verticalAlign=top;spacingLeft=4;spacingRight=4;overflow=hidden;rotatable=0;points=[[0,0.5],[1,0.5]];portConstraint=eastwest;fontSize=14;" vertex="1" parent="110">
                    <mxGeometry y="134" width="527" height="22" as="geometry"/>
                </mxCell>
                <mxCell id="117" value="+ getCapacidade(): int" style="text;align=left;verticalAlign=top;spacingLeft=4;spacingRight=4;overflow=hidden;rotatable=0;points=[[0,0.5],[1,0.5]];portConstraint=eastwest;fontSize=14;" vertex="1" parent="110">
                    <mxGeometry y="156" width="527" height="30" as="geometry"/>
                </mxCell>
                <mxCell id="118" value="+ getFilme(): Filme" style="text;align=left;verticalAlign=top;spacingLeft=4;spacingRight=4;overflow=hidden;rotatable=0;points=[[0,0.5],[1,0.5]];portConstraint=eastwest;fontSize=14;" vertex="1" parent="110">
                    <mxGeometry y="186" width="527" height="30" as="geometry"/>
                </mxCell>
                <mxCell id="119" value="+ getId(): int" style="text;align=left;verticalAlign=top;spacingLeft=4;spacingRight=4;overflow=hidden;rotatable=0;points=[[0,0.5],[1,0.5]];portConstraint=eastwest;fontSize=14;" vertex="1" parent="110">
                    <mxGeometry y="216" width="527" height="30" as="geometry"/>
                </mxCell>
                <mxCell id="120" value="+ toString(): String" style="text;align=left;verticalAlign=top;spacingLeft=4;spacingRight=4;overflow=hidden;rotatable=0;points=[[0,0.5],[1,0.5]];portConstraint=eastwest;fontSize=14;" vertex="1" parent="110">
                    <mxGeometry y="246" width="527" height="30" as="geometry"/>
                </mxCell>
                <mxCell id="121" value="+ setFilme(filme: Filme): void" style="text;align=left;verticalAlign=top;spacingLeft=4;spacingRight=4;overflow=hidden;rotatable=0;points=[[0,0.5],[1,0.5]];portConstraint=eastwest;fontSize=14;" vertex="1" parent="110">
                    <mxGeometry y="276" width="527" height="30" as="geometry"/>
                </mxCell>
                <mxCell id="122" value="+ compareTo(o: Sala): int" style="text;align=left;verticalAlign=top;spacingLeft=4;spacingRight=4;overflow=hidden;rotatable=0;points=[[0,0.5],[1,0.5]];portConstraint=eastwest;fontSize=14;" vertex="1" parent="110">
                    <mxGeometry y="306" width="527" height="30" as="geometry"/>
                </mxCell>
                <mxCell id="123" value="Cliente" style="swimlane;fontStyle=1;align=center;verticalAlign=top;childLayout=stackLayout;horizontal=1;startSize=26;horizontalStack=0;resizeParent=1;resizeParentMax=0;resizeLast=0;collapsible=1;marginBottom=0;fontSize=14;strokeWidth=2;fillColor=#1ba1e2;fontColor=#ffffff;strokeColor=#000000;" vertex="1" parent="1">
                    <mxGeometry x="849" y="526" width="358" height="192" as="geometry"/>
                </mxCell>
                <mxCell id="124" value="- nome: String" style="text;align=left;verticalAlign=top;spacingLeft=4;spacingRight=4;overflow=hidden;rotatable=0;points=[[0,0.5],[1,0.5]];portConstraint=eastwest;fontSize=14;" vertex="1" parent="123">
                    <mxGeometry y="26" width="358" height="26" as="geometry"/>
                </mxCell>
                <mxCell id="125" value="- cpf: String" style="text;align=left;verticalAlign=top;spacingLeft=4;spacingRight=4;overflow=hidden;rotatable=0;points=[[0,0.5],[1,0.5]];portConstraint=eastwest;fontSize=14;" vertex="1" parent="123">
                    <mxGeometry y="52" width="358" height="26" as="geometry"/>
                </mxCell>
                <mxCell id="126" value="- idade: short" style="text;align=left;verticalAlign=top;spacingLeft=4;spacingRight=4;overflow=hidden;rotatable=0;points=[[0,0.5],[1,0.5]];portConstraint=eastwest;fontSize=14;" vertex="1" parent="123">
                    <mxGeometry y="78" width="358" height="26" as="geometry"/>
                </mxCell>
                <mxCell id="127" value="" style="line;strokeWidth=2;align=left;verticalAlign=middle;spacingTop=-1;spacingLeft=3;spacingRight=3;rotatable=0;labelPosition=right;points=[];portConstraint=eastwest;fontSize=14;" vertex="1" parent="123">
                    <mxGeometry y="104" width="358" height="8" as="geometry"/>
                </mxCell>
                <mxCell id="128" value="+ Cliente(nome: String, cpf: String, idade: short): void" style="text;align=left;verticalAlign=top;spacingLeft=4;spacingRight=4;overflow=hidden;rotatable=0;points=[[0,0.5],[1,0.5]];portConstraint=eastwest;fontSize=14;" vertex="1" parent="123">
                    <mxGeometry y="112" width="358" height="28" as="geometry"/>
                </mxCell>
                <mxCell id="129" value="+ toString(): String" style="text;align=left;verticalAlign=top;spacingLeft=4;spacingRight=4;overflow=hidden;rotatable=0;points=[[0,0.5],[1,0.5]];portConstraint=eastwest;fontSize=14;" vertex="1" parent="123">
                    <mxGeometry y="140" width="358" height="26" as="geometry"/>
                </mxCell>
                <mxCell id="130" value="+ compareTo(o: Cliente): int" style="text;align=left;verticalAlign=top;spacingLeft=4;spacingRight=4;overflow=hidden;rotatable=0;points=[[0,0.5],[1,0.5]];portConstraint=eastwest;fontSize=14;" vertex="1" parent="123">
                    <mxGeometry y="166" width="358" height="26" as="geometry"/>
                </mxCell>
                <mxCell id="131" value="Filme" style="swimlane;fontStyle=1;align=center;verticalAlign=middle;childLayout=stackLayout;horizontal=1;startSize=26;horizontalStack=0;resizeParent=1;resizeParentMax=0;resizeLast=0;collapsible=1;marginBottom=0;fontSize=17;fillColor=#1ba1e2;fontColor=#ffffff;strokeColor=#000000;strokeWidth=2;labelPosition=center;verticalLabelPosition=middle;" vertex="1" parent="1">
                    <mxGeometry x="-423" y="170" width="467" height="752" as="geometry"/>
                </mxCell>
                <mxCell id="132" value="- codigo: int" style="text;align=left;verticalAlign=top;spacingLeft=4;spacingRight=4;overflow=hidden;rotatable=0;points=[[0,0.5],[1,0.5]];portConstraint=eastwest;fontSize=14;" vertex="1" parent="131">
                    <mxGeometry y="26" width="467" height="26" as="geometry"/>
                </mxCell>
                <mxCell id="133" value="- nome: String" style="text;align=left;verticalAlign=top;spacingLeft=4;spacingRight=4;overflow=hidden;rotatable=0;points=[[0,0.5],[1,0.5]];portConstraint=eastwest;fontSize=14;" vertex="1" parent="131">
                    <mxGeometry y="52" width="467" height="26" as="geometry"/>
                </mxCell>
                <mxCell id="134" value="- genero: String" style="text;align=left;verticalAlign=top;spacingLeft=4;spacingRight=4;overflow=hidden;rotatable=0;points=[[0,0.5],[1,0.5]];portConstraint=eastwest;fontSize=14;" vertex="1" parent="131">
                    <mxGeometry y="78" width="467" height="26" as="geometry"/>
                </mxCell>
                <mxCell id="135" value="- minIdade: int" style="text;align=left;verticalAlign=top;spacingLeft=4;spacingRight=4;overflow=hidden;rotatable=0;points=[[0,0.5],[1,0.5]];portConstraint=eastwest;fontSize=14;" vertex="1" parent="131">
                    <mxGeometry y="104" width="467" height="26" as="geometry"/>
                </mxCell>
                <mxCell id="136" value="- modalidade: String" style="text;align=left;verticalAlign=top;spacingLeft=4;spacingRight=4;overflow=hidden;rotatable=0;points=[[0,0.5],[1,0.5]];portConstraint=eastwest;fontSize=14;" vertex="1" parent="131">
                    <mxGeometry y="130" width="467" height="26" as="geometry"/>
                </mxCell>
                <mxCell id="137" value="- idioma: String" style="text;align=left;verticalAlign=top;spacingLeft=4;spacingRight=4;overflow=hidden;rotatable=0;points=[[0,0.5],[1,0.5]];portConstraint=eastwest;fontSize=14;" vertex="1" parent="131">
                    <mxGeometry y="156" width="467" height="26" as="geometry"/>
                </mxCell>
                <mxCell id="138" value="- sinopse: String" style="text;align=left;verticalAlign=top;spacingLeft=4;spacingRight=4;overflow=hidden;rotatable=0;points=[[0,0.5],[1,0.5]];portConstraint=eastwest;fontSize=14;" vertex="1" parent="131">
                    <mxGeometry y="182" width="467" height="26" as="geometry"/>
                </mxCell>
                <mxCell id="139" value="- duracao: int" style="text;align=left;verticalAlign=top;spacingLeft=4;spacingRight=4;overflow=hidden;rotatable=0;points=[[0,0.5],[1,0.5]];portConstraint=eastwest;fontSize=14;" vertex="1" parent="131">
                    <mxGeometry y="208" width="467" height="26" as="geometry"/>
                </mxCell>
                <mxCell id="140" value="" style="line;strokeWidth=2;align=left;verticalAlign=middle;spacingTop=-1;spacingLeft=3;spacingRight=3;rotatable=0;labelPosition=right;points=[];portConstraint=eastwest;fontSize=14;" vertex="1" parent="131">
                    <mxGeometry y="234" width="467" height="8" as="geometry"/>
                </mxCell>
                <mxCell id="141" value="+ Filme(codigo: int, nome: String, genero: String, modalidade: String,&#10;Â idioma: String, sinopse: String, duracao: int): void" style="text;align=left;verticalAlign=top;spacingLeft=4;spacingRight=4;overflow=hidden;rotatable=0;points=[[0,0.5],[1,0.5]];portConstraint=eastwest;fontSize=14;" vertex="1" parent="131">
                    <mxGeometry y="242" width="467" height="42" as="geometry"/>
                </mxCell>
                <mxCell id="142" value="+ setNome(nome: String): void" style="text;align=left;verticalAlign=top;spacingLeft=4;spacingRight=4;overflow=hidden;rotatable=0;points=[[0,0.5],[1,0.5]];portConstraint=eastwest;fontSize=14;" vertex="1" parent="131">
                    <mxGeometry y="284" width="467" height="26" as="geometry"/>
                </mxCell>
                <mxCell id="143" value="+ setcodigo(codigo: int): void" style="text;align=left;verticalAlign=top;spacingLeft=4;spacingRight=4;overflow=hidden;rotatable=0;points=[[0,0.5],[1,0.5]];portConstraint=eastwest;fontSize=14;" vertex="1" parent="131">
                    <mxGeometry y="310" width="467" height="26" as="geometry"/>
                </mxCell>
                <mxCell id="144" value="+ setGenero(genero: String): void" style="text;align=left;verticalAlign=top;spacingLeft=4;spacingRight=4;overflow=hidden;rotatable=0;points=[[0,0.5],[1,0.5]];portConstraint=eastwest;fontSize=14;" vertex="1" parent="131">
                    <mxGeometry y="336" width="467" height="26" as="geometry"/>
                </mxCell>
                <mxCell id="145" value="+ setMinIdade(idade: int): void" style="text;align=left;verticalAlign=top;spacingLeft=4;spacingRight=4;overflow=hidden;rotatable=0;points=[[0,0.5],[1,0.5]];portConstraint=eastwest;fontSize=14;" vertex="1" parent="131">
                    <mxGeometry y="362" width="467" height="26" as="geometry"/>
                </mxCell>
                <mxCell id="146" value="+ setModalidade(modalidade: String): void" style="text;align=left;verticalAlign=top;spacingLeft=4;spacingRight=4;overflow=hidden;rotatable=0;points=[[0,0.5],[1,0.5]];portConstraint=eastwest;fontSize=14;" vertex="1" parent="131">
                    <mxGeometry y="388" width="467" height="26" as="geometry"/>
                </mxCell>
                <mxCell id="147" value="+ setIdioma(idioma: String): void" style="text;align=left;verticalAlign=top;spacingLeft=4;spacingRight=4;overflow=hidden;rotatable=0;points=[[0,0.5],[1,0.5]];portConstraint=eastwest;fontSize=14;" vertex="1" parent="131">
                    <mxGeometry y="414" width="467" height="26" as="geometry"/>
                </mxCell>
                <mxCell id="148" value="+ setSinopse(sinopse: String): void" style="text;align=left;verticalAlign=top;spacingLeft=4;spacingRight=4;overflow=hidden;rotatable=0;points=[[0,0.5],[1,0.5]];portConstraint=eastwest;fontSize=14;" vertex="1" parent="131">
                    <mxGeometry y="440" width="467" height="26" as="geometry"/>
                </mxCell>
                <mxCell id="149" value="+ getNome(): String" style="text;align=left;verticalAlign=top;spacingLeft=4;spacingRight=4;overflow=hidden;rotatable=0;points=[[0,0.5],[1,0.5]];portConstraint=eastwest;fontSize=14;" vertex="1" parent="131">
                    <mxGeometry y="466" width="467" height="26" as="geometry"/>
                </mxCell>
                <mxCell id="150" value="+ getDuracao(): int" style="text;align=left;verticalAlign=top;spacingLeft=4;spacingRight=4;overflow=hidden;rotatable=0;points=[[0,0.5],[1,0.5]];portConstraint=eastwest;fontSize=14;" vertex="1" parent="131">
                    <mxGeometry y="492" width="467" height="26" as="geometry"/>
                </mxCell>
                <mxCell id="151" value="+ getSinopse(): String" style="text;align=left;verticalAlign=top;spacingLeft=4;spacingRight=4;overflow=hidden;rotatable=0;points=[[0,0.5],[1,0.5]];portConstraint=eastwest;fontSize=14;" vertex="1" parent="131">
                    <mxGeometry y="518" width="467" height="26" as="geometry"/>
                </mxCell>
                <mxCell id="152" value="+ getIdioma(): String" style="text;align=left;verticalAlign=top;spacingLeft=4;spacingRight=4;overflow=hidden;rotatable=0;points=[[0,0.5],[1,0.5]];portConstraint=eastwest;fontSize=14;" vertex="1" parent="131">
                    <mxGeometry y="544" width="467" height="26" as="geometry"/>
                </mxCell>
                <mxCell id="153" value="+ getModalidade(): String" style="text;align=left;verticalAlign=top;spacingLeft=4;spacingRight=4;overflow=hidden;rotatable=0;points=[[0,0.5],[1,0.5]];portConstraint=eastwest;fontSize=14;" vertex="1" parent="131">
                    <mxGeometry y="570" width="467" height="26" as="geometry"/>
                </mxCell>
                <mxCell id="154" value="+ getGenero(): String" style="text;align=left;verticalAlign=top;spacingLeft=4;spacingRight=4;overflow=hidden;rotatable=0;points=[[0,0.5],[1,0.5]];portConstraint=eastwest;fontSize=14;" vertex="1" parent="131">
                    <mxGeometry y="596" width="467" height="26" as="geometry"/>
                </mxCell>
                <mxCell id="155" value="+ getMinIdade(): int" style="text;align=left;verticalAlign=top;spacingLeft=4;spacingRight=4;overflow=hidden;rotatable=0;points=[[0,0.5],[1,0.5]];portConstraint=eastwest;fontSize=14;" vertex="1" parent="131">
                    <mxGeometry y="622" width="467" height="26" as="geometry"/>
                </mxCell>
                <mxCell id="156" value="+ getcodigo(): String" style="text;align=left;verticalAlign=top;spacingLeft=4;spacingRight=4;overflow=hidden;rotatable=0;points=[[0,0.5],[1,0.5]];portConstraint=eastwest;fontSize=14;" vertex="1" parent="131">
                    <mxGeometry y="648" width="467" height="26" as="geometry"/>
                </mxCell>
                <mxCell id="157" value="+ getDuracao(): int" style="text;align=left;verticalAlign=top;spacingLeft=4;spacingRight=4;overflow=hidden;rotatable=0;points=[[0,0.5],[1,0.5]];portConstraint=eastwest;fontSize=14;" vertex="1" parent="131">
                    <mxGeometry y="674" width="467" height="26" as="geometry"/>
                </mxCell>
                <mxCell id="158" value="+ toString(): String" style="text;align=left;verticalAlign=top;spacingLeft=4;spacingRight=4;overflow=hidden;rotatable=0;points=[[0,0.5],[1,0.5]];portConstraint=eastwest;fontSize=14;" vertex="1" parent="131">
                    <mxGeometry y="700" width="467" height="26" as="geometry"/>
                </mxCell>
                <mxCell id="159" value="+ compareTo(o: Filme): int" style="text;align=left;verticalAlign=top;spacingLeft=4;spacingRight=4;overflow=hidden;rotatable=0;points=[[0,0.5],[1,0.5]];portConstraint=eastwest;fontSize=14;" vertex="1" parent="131">
                    <mxGeometry y="726" width="467" height="26" as="geometry"/>
                </mxCell>
                <mxCell id="160" value="Estudante" style="swimlane;fontStyle=1;align=center;verticalAlign=top;childLayout=stackLayout;horizontal=1;startSize=26;horizontalStack=0;resizeParent=1;resizeParentMax=0;resizeLast=0;collapsible=1;marginBottom=0;fontSize=14;fillColor=#1ba1e2;fontColor=#ffffff;strokeColor=#000000;strokeWidth=2;rounded=0;shadow=0;sketch=0;glass=0;" vertex="1" parent="1">
                    <mxGeometry x="859" y="847" width="320" height="256" as="geometry"/>
                </mxCell>
                <mxCell id="161" value="- matricula: String" style="text;align=left;verticalAlign=top;spacingLeft=4;spacingRight=4;overflow=hidden;rotatable=0;points=[[0,0.5],[1,0.5]];portConstraint=eastwest;fontSize=14;" vertex="1" parent="160">
                    <mxGeometry y="26" width="320" height="26" as="geometry"/>
                </mxCell>
                <mxCell id="162" value="- siglaFaculdade: String" style="text;align=left;verticalAlign=top;spacingLeft=4;spacingRight=4;overflow=hidden;rotatable=0;points=[[0,0.5],[1,0.5]];portConstraint=eastwest;fontSize=14;" vertex="1" parent="160">
                    <mxGeometry y="52" width="320" height="26" as="geometry"/>
                </mxCell>
                <mxCell id="163" value="" style="line;strokeWidth=2;align=left;verticalAlign=middle;spacingTop=-1;spacingLeft=3;spacingRight=3;rotatable=0;labelPosition=right;points=[];portConstraint=eastwest;fontSize=14;shadow=0;" vertex="1" parent="160">
                    <mxGeometry y="78" width="320" height="8" as="geometry"/>
                </mxCell>
                <mxCell id="164" value="- Estudante(nome: String, cpf: String, idade: short,Â &#10;matricula: String, sigra: String): void" style="text;align=left;verticalAlign=top;spacingLeft=4;spacingRight=4;overflow=hidden;rotatable=0;points=[[0,0.5],[1,0.5]];portConstraint=eastwest;fontSize=14;" vertex="1" parent="160">
                    <mxGeometry y="86" width="320" height="44" as="geometry"/>
                </mxCell>
                <mxCell id="165" value="- setMatricula(matricula: String): void" style="text;align=left;verticalAlign=top;spacingLeft=4;spacingRight=4;overflow=hidden;rotatable=0;points=[[0,0.5],[1,0.5]];portConstraint=eastwest;fontSize=14;" vertex="1" parent="160">
                    <mxGeometry y="130" width="320" height="22" as="geometry"/>
                </mxCell>
                <mxCell id="166" value="- setSiglaFaculdade(sigla: String): void" style="text;align=left;verticalAlign=top;spacingLeft=4;spacingRight=4;overflow=hidden;rotatable=0;points=[[0,0.5],[1,0.5]];portConstraint=eastwest;fontSize=14;" vertex="1" parent="160">
                    <mxGeometry y="152" width="320" height="26" as="geometry"/>
                </mxCell>
                <mxCell id="167" value="+ getMatricula(): String" style="text;align=left;verticalAlign=top;spacingLeft=4;spacingRight=4;overflow=hidden;rotatable=0;points=[[0,0.5],[1,0.5]];portConstraint=eastwest;fontSize=14;" vertex="1" parent="160">
                    <mxGeometry y="178" width="320" height="26" as="geometry"/>
                </mxCell>
                <mxCell id="168" value="+ getSiglaFaculdade(): StringÂ " style="text;align=left;verticalAlign=top;spacingLeft=4;spacingRight=4;overflow=hidden;rotatable=0;points=[[0,0.5],[1,0.5]];portConstraint=eastwest;fontSize=14;" vertex="1" parent="160">
                    <mxGeometry y="204" width="320" height="26" as="geometry"/>
                </mxCell>
                <mxCell id="169" value="+ toString(): StringÂ " style="text;align=left;verticalAlign=top;spacingLeft=4;spacingRight=4;overflow=hidden;rotatable=0;points=[[0,0.5],[1,0.5]];portConstraint=eastwest;fontSize=14;" vertex="1" parent="160">
                    <mxGeometry y="230" width="320" height="26" as="geometry"/>
                </mxCell>
                <mxCell id="170" value="" style="endArrow=none;html=1;endSize=24;startArrow=diamondThin;startSize=30;startFill=0;edgeStyle=orthogonalEdgeStyle;align=left;verticalAlign=bottom;entryX=1.002;entryY=0.022;entryDx=0;entryDy=0;endFill=0;fillColor=none;fontSize=14;exitX=0;exitY=0.5;exitDx=0;exitDy=0;entryPerimeter=0;strokeWidth=2;" edge="1" parent="1" source="113" target="131">
                    <mxGeometry x="-1" y="3" relative="1" as="geometry">
                        <mxPoint x="197" y="78" as="sourcePoint"/>
                        <mxPoint x="187" y="250" as="targetPoint"/>
                        <Array as="points">
                            <mxPoint x="136" y="-159"/>
                            <mxPoint x="136" y="184"/>
                        </Array>
                    </mxGeometry>
                </mxCell>
                <mxCell id="171" value="ContÃ©m" style="edgeLabel;html=1;align=center;verticalAlign=middle;resizable=0;points=[];fontSize=22;" vertex="1" connectable="0" parent="170">
                    <mxGeometry x="0.1009" y="-1" relative="1" as="geometry">
                        <mxPoint as="offset"/>
                    </mxGeometry>
                </mxCell>
                <mxCell id="172" style="edgeStyle=none;html=1;startArrow=none;startFill=0;endArrow=block;endFill=0;startSize=24;endSize=24;fontSize=14;strokeWidth=2;" edge="1" parent="1">
                    <mxGeometry relative="1" as="geometry">
                        <mxPoint x="1016" y="720" as="targetPoint"/>
                        <mxPoint x="1016" y="848" as="sourcePoint"/>
                    </mxGeometry>
                </mxCell>
                <mxCell id="173" value="Â«InterfaceÂ»&lt;br style=&quot;font-size: 17px;&quot;&gt;&lt;b style=&quot;font-size: 17px;&quot;&gt;Comparable&lt;/b&gt;" style="html=1;fillColor=#1ba1e2;fontColor=#ffffff;strokeColor=#000000;fontSize=17;strokeWidth=2;" vertex="1" parent="1">
                    <mxGeometry x="967" y="-220" width="160" height="80" as="geometry"/>
                </mxCell>
                <mxCell id="174" style="edgeStyle=none;html=1;exitX=1;exitY=-0.308;exitDx=0;exitDy=0;entryX=0;entryY=0.5;entryDx=0;entryDy=0;dashed=1;fontSize=17;startArrow=none;startFill=0;endArrow=block;endFill=0;startSize=24;endSize=24;strokeWidth=2;exitPerimeter=0;" edge="1" parent="1" source="113" target="173">
                    <mxGeometry relative="1" as="geometry"/>
                </mxCell>
                <mxCell id="175" value="Ingresso" style="swimlane;fontStyle=1;align=center;verticalAlign=top;childLayout=stackLayout;horizontal=1;startSize=26;horizontalStack=0;resizeParent=1;resizeParentMax=0;resizeLast=0;collapsible=1;marginBottom=0;fontSize=14;strokeWidth=2;fillColor=#1ba1e2;fontColor=#ffffff;strokeColor=#000000;" vertex="1" parent="1">
                    <mxGeometry x="267" y="460" width="360" height="440" as="geometry"/>
                </mxCell>
                <mxCell id="176" value="- codigo: int" style="text;align=left;verticalAlign=top;spacingLeft=4;spacingRight=4;overflow=hidden;rotatable=0;points=[[0,0.5],[1,0.5]];portConstraint=eastwest;fontSize=14;" vertex="1" parent="175">
                    <mxGeometry y="26" width="360" height="26" as="geometry"/>
                </mxCell>
                <mxCell id="177" value="- cliente: Cliente" style="text;align=left;verticalAlign=top;spacingLeft=4;spacingRight=4;overflow=hidden;rotatable=0;points=[[0,0.5],[1,0.5]];portConstraint=eastwest;fontSize=14;" vertex="1" parent="175">
                    <mxGeometry y="52" width="360" height="26" as="geometry"/>
                </mxCell>
                <mxCell id="178" value="- sala: Sala" style="text;align=left;verticalAlign=top;spacingLeft=4;spacingRight=4;overflow=hidden;rotatable=0;points=[[0,0.5],[1,0.5]];portConstraint=eastwest;fontSize=14;" vertex="1" parent="175">
                    <mxGeometry y="78" width="360" height="26" as="geometry"/>
                </mxCell>
                <mxCell id="179" value="- valor: float" style="text;align=left;verticalAlign=top;spacingLeft=4;spacingRight=4;overflow=hidden;rotatable=0;points=[[0,0.5],[1,0.5]];portConstraint=eastwest;fontSize=14;" vertex="1" parent="175">
                    <mxGeometry y="104" width="360" height="26" as="geometry"/>
                </mxCell>
                <mxCell id="180" value="" style="line;strokeWidth=2;align=left;verticalAlign=middle;spacingTop=-1;spacingLeft=3;spacingRight=3;rotatable=0;labelPosition=right;points=[];portConstraint=eastwest;fontSize=14;" vertex="1" parent="175">
                    <mxGeometry y="130" width="360" height="8" as="geometry"/>
                </mxCell>
                <mxCell id="181" value="+ Ingresso(codigo: int, cliente: Cliente, sala: Sala,&#10;Â valor: float): void" style="text;align=left;verticalAlign=top;spacingLeft=4;spacingRight=4;overflow=hidden;rotatable=0;points=[[0,0.5],[1,0.5]];portConstraint=eastwest;fontSize=14;" vertex="1" parent="175">
                    <mxGeometry y="138" width="360" height="42" as="geometry"/>
                </mxCell>
                <mxCell id="182" value="+ setCodigo(codigo: int): void" style="text;align=left;verticalAlign=top;spacingLeft=4;spacingRight=4;overflow=hidden;rotatable=0;points=[[0,0.5],[1,0.5]];portConstraint=eastwest;fontSize=14;" vertex="1" parent="175">
                    <mxGeometry y="180" width="360" height="26" as="geometry"/>
                </mxCell>
                <mxCell id="183" value="+ setValor(valor: float): void" style="text;align=left;verticalAlign=top;spacingLeft=4;spacingRight=4;overflow=hidden;rotatable=0;points=[[0,0.5],[1,0.5]];portConstraint=eastwest;fontSize=14;" vertex="1" parent="175">
                    <mxGeometry y="206" width="360" height="26" as="geometry"/>
                </mxCell>
                <mxCell id="184" value="+ setCliente(cliente: Cliente): void" style="text;align=left;verticalAlign=top;spacingLeft=4;spacingRight=4;overflow=hidden;rotatable=0;points=[[0,0.5],[1,0.5]];portConstraint=eastwest;fontSize=14;" vertex="1" parent="175">
                    <mxGeometry y="232" width="360" height="26" as="geometry"/>
                </mxCell>
                <mxCell id="185" value="+ setSala(sala: Sala): void" style="text;align=left;verticalAlign=top;spacingLeft=4;spacingRight=4;overflow=hidden;rotatable=0;points=[[0,0.5],[1,0.5]];portConstraint=eastwest;fontSize=14;" vertex="1" parent="175">
                    <mxGeometry y="258" width="360" height="26" as="geometry"/>
                </mxCell>
                <mxCell id="186" value="+ getCodigo(): int" style="text;align=left;verticalAlign=top;spacingLeft=4;spacingRight=4;overflow=hidden;rotatable=0;points=[[0,0.5],[1,0.5]];portConstraint=eastwest;fontSize=14;" vertex="1" parent="175">
                    <mxGeometry y="284" width="360" height="26" as="geometry"/>
                </mxCell>
                <mxCell id="187" value="+ getCliente(): Cliente" style="text;align=left;verticalAlign=top;spacingLeft=4;spacingRight=4;overflow=hidden;rotatable=0;points=[[0,0.5],[1,0.5]];portConstraint=eastwest;fontSize=14;" vertex="1" parent="175">
                    <mxGeometry y="310" width="360" height="26" as="geometry"/>
                </mxCell>
                <mxCell id="188" value="+ getValor(): Float" style="text;align=left;verticalAlign=top;spacingLeft=4;spacingRight=4;overflow=hidden;rotatable=0;points=[[0,0.5],[1,0.5]];portConstraint=eastwest;fontSize=14;" vertex="1" parent="175">
                    <mxGeometry y="336" width="360" height="26" as="geometry"/>
                </mxCell>
                <mxCell id="189" value="+ getSala(): Sala" style="text;align=left;verticalAlign=top;spacingLeft=4;spacingRight=4;overflow=hidden;rotatable=0;points=[[0,0.5],[1,0.5]];portConstraint=eastwest;fontSize=14;" vertex="1" parent="175">
                    <mxGeometry y="362" width="360" height="26" as="geometry"/>
                </mxCell>
                <mxCell id="190" value="+ toString(): String" style="text;align=left;verticalAlign=top;spacingLeft=4;spacingRight=4;overflow=hidden;rotatable=0;points=[[0,0.5],[1,0.5]];portConstraint=eastwest;fontSize=14;" vertex="1" parent="175">
                    <mxGeometry y="388" width="360" height="26" as="geometry"/>
                </mxCell>
                <mxCell id="191" value="+ compareTo(o: Ingresso): int" style="text;align=left;verticalAlign=top;spacingLeft=4;spacingRight=4;overflow=hidden;rotatable=0;points=[[0,0.5],[1,0.5]];portConstraint=eastwest;fontSize=14;" vertex="1" parent="175">
                    <mxGeometry y="414" width="360" height="26" as="geometry"/>
                </mxCell>
                <mxCell id="192" value="" style="endArrow=none;endFill=0;endSize=24;html=1;fontSize=35;fontColor=#000000;strokeWidth=2;exitX=0.372;exitY=0.001;exitDx=0;exitDy=0;exitPerimeter=0;startArrow=block;startFill=1;sourcePerimeterSpacing=5;startSize=24;" edge="1" parent="1" source="175">
                    <mxGeometry width="160" relative="1" as="geometry">
                        <mxPoint x="400" y="450" as="sourcePoint"/>
                        <mxPoint x="400" y="90.00000000000045" as="targetPoint"/>
                    </mxGeometry>
                </mxCell>
                <mxCell id="193" value="ContÃ©m" style="edgeLabel;html=1;align=center;verticalAlign=middle;resizable=0;points=[];fontSize=22;" vertex="1" connectable="0" parent="192">
                    <mxGeometry x="0.13" relative="1" as="geometry">
                        <mxPoint as="offset"/>
                    </mxGeometry>
                </mxCell>
                <mxCell id="194" value="" style="endArrow=none;endFill=0;endSize=24;html=1;fontSize=35;fontColor=#000000;strokeWidth=2;exitX=0.667;exitY=-0.003;exitDx=0;exitDy=0;exitPerimeter=0;entryX=-0.009;entryY=-0.081;entryDx=0;entryDy=0;entryPerimeter=0;startArrow=block;startFill=1;startSize=24;" edge="1" parent="1" source="175" target="126">
                    <mxGeometry width="160" relative="1" as="geometry">
                        <mxPoint x="497" y="400" as="sourcePoint"/>
                        <mxPoint x="848.2840000000001" y="695.0100000000002" as="targetPoint"/>
                        <Array as="points">
                            <mxPoint x="506" y="287"/>
                            <mxPoint x="739" y="287"/>
                            <mxPoint x="739" y="602"/>
                        </Array>
                    </mxGeometry>
                </mxCell>
                <mxCell id="195" value="ContÃ©m" style="edgeLabel;html=1;align=center;verticalAlign=middle;resizable=0;points=[];fontSize=22;" vertex="1" connectable="0" parent="194">
                    <mxGeometry x="0.0457" y="-1" relative="1" as="geometry">
                        <mxPoint x="-1" as="offset"/>
                    </mxGeometry>
                </mxCell>
                <mxCell id="196" value="" style="endArrow=block;dashed=1;endFill=0;endSize=24;html=1;fontSize=35;fontColor=#000000;strokeWidth=2;entryX=0.75;entryY=1;entryDx=0;entryDy=0;" edge="1" parent="1" target="173">
                    <mxGeometry width="160" relative="1" as="geometry">
                        <mxPoint x="1087" y="70.00000000000045" as="sourcePoint"/>
                        <mxPoint x="1066" y="-130" as="targetPoint"/>
                        <Array as="points">
                            <mxPoint x="1087" y="-70"/>
                        </Array>
                    </mxGeometry>
                </mxCell>
                <mxCell id="197" value="" style="endArrow=block;dashed=1;endFill=0;endSize=24;html=1;fontSize=35;fontColor=#000000;strokeWidth=2;exitX=1;exitY=0.5;exitDx=0;exitDy=0;entryX=0.25;entryY=1;entryDx=0;entryDy=0;" edge="1" parent="1" source="176" target="173">
                    <mxGeometry width="160" relative="1" as="geometry">
                        <mxPoint x="667" y="490" as="sourcePoint"/>
                        <mxPoint x="827" y="490" as="targetPoint"/>
                        <Array as="points">
                            <mxPoint x="1257" y="499"/>
                            <mxPoint x="1257" y="-50"/>
                            <mxPoint x="1007" y="-50"/>
                        </Array>
                    </mxGeometry>
                </mxCell>
                <mxCell id="198" value="" style="endArrow=block;dashed=1;endFill=0;endSize=24;html=1;fontSize=35;fontColor=#000000;strokeWidth=2;entryX=0.5;entryY=0;entryDx=0;entryDy=0;exitX=0.563;exitY=0.002;exitDx=0;exitDy=0;exitPerimeter=0;" edge="1" parent="1" source="131" target="173">
                    <mxGeometry width="160" relative="1" as="geometry">
                        <mxPoint x="-123" y="120" as="sourcePoint"/>
                        <mxPoint x="37" y="120" as="targetPoint"/>
                        <Array as="points">
                            <mxPoint x="-160" y="50"/>
                            <mxPoint x="87" y="50"/>
                            <mxPoint x="87" y="-320"/>
                            <mxPoint x="1047" y="-320"/>
                        </Array>
                    </mxGeometry>
                </mxCell>
                <mxCell id="199" value="&lt;font style=&quot;font-size: 22px&quot;&gt;1&lt;/font&gt;" style="text;html=1;strokeColor=none;fillColor=none;align=center;verticalAlign=middle;whiteSpace=wrap;rounded=0;" vertex="1" parent="1">
                    <mxGeometry x="57" y="150" width="60" height="30" as="geometry"/>
                </mxCell>
                <mxCell id="200" value="&lt;font style=&quot;font-size: 22px&quot;&gt;1&lt;/font&gt;" style="text;html=1;strokeColor=none;fillColor=none;align=center;verticalAlign=middle;whiteSpace=wrap;rounded=0;" vertex="1" parent="1">
                    <mxGeometry x="137" y="-190" width="60" height="30" as="geometry"/>
                </mxCell>
                <mxCell id="201" value="1" style="text;html=1;strokeColor=none;fillColor=none;align=center;verticalAlign=middle;whiteSpace=wrap;rounded=0;fontSize=22;" vertex="1" parent="1">
                    <mxGeometry x="319" y="100" width="60" height="30" as="geometry"/>
                </mxCell>
                <mxCell id="202" value="*" style="text;html=1;strokeColor=none;fillColor=none;align=center;verticalAlign=middle;whiteSpace=wrap;rounded=0;fontSize=22;" vertex="1" parent="1">
                    <mxGeometry x="337" y="430" width="60" height="30" as="geometry"/>
                </mxCell>
                <mxCell id="203" value="1" style="text;html=1;strokeColor=none;fillColor=none;align=center;verticalAlign=middle;whiteSpace=wrap;rounded=0;fontSize=22;" vertex="1" parent="1">
                    <mxGeometry x="779" y="560" width="60" height="30" as="geometry"/>
                </mxCell>
                <mxCell id="204" value="1" style="text;html=1;strokeColor=none;fillColor=none;align=center;verticalAlign=middle;whiteSpace=wrap;rounded=0;fontSize=22;" vertex="1" parent="1">
                    <mxGeometry x="517" y="420" width="60" height="30" as="geometry"/>
                </mxCell>
                <mxCell id="205" value="Pessoa" style="swimlane;fontStyle=3;align=center;verticalAlign=top;childLayout=stackLayout;horizontal=1;startSize=26;horizontalStack=0;resizeParent=1;resizeParentMax=0;resizeLast=0;collapsible=1;marginBottom=0;fontSize=14;strokeWidth=2;fillColor=#1ba1e2;fontColor=#ffffff;strokeColor=#000000;" vertex="1" parent="1">
                    <mxGeometry x="849" y="77" width="358" height="294" as="geometry"/>
                </mxCell>
                <mxCell id="206" value="- nome: String" style="text;align=left;verticalAlign=top;spacingLeft=4;spacingRight=4;overflow=hidden;rotatable=0;points=[[0,0.5],[1,0.5]];portConstraint=eastwest;fontSize=14;" vertex="1" parent="205">
                    <mxGeometry y="26" width="358" height="26" as="geometry"/>
                </mxCell>
                <mxCell id="207" value="- cpf: String" style="text;align=left;verticalAlign=top;spacingLeft=4;spacingRight=4;overflow=hidden;rotatable=0;points=[[0,0.5],[1,0.5]];portConstraint=eastwest;fontSize=14;" vertex="1" parent="205">
                    <mxGeometry y="52" width="358" height="26" as="geometry"/>
                </mxCell>
                <mxCell id="208" value="- idade: short" style="text;align=left;verticalAlign=top;spacingLeft=4;spacingRight=4;overflow=hidden;rotatable=0;points=[[0,0.5],[1,0.5]];portConstraint=eastwest;fontSize=14;" vertex="1" parent="205">
                    <mxGeometry y="78" width="358" height="26" as="geometry"/>
                </mxCell>
                <mxCell id="209" value="" style="line;strokeWidth=2;align=left;verticalAlign=middle;spacingTop=-1;spacingLeft=3;spacingRight=3;rotatable=0;labelPosition=right;points=[];portConstraint=eastwest;fontSize=14;" vertex="1" parent="205">
                    <mxGeometry y="104" width="358" height="8" as="geometry"/>
                </mxCell>
                <mxCell id="210" value="+ setNome(nome: String): void" style="text;align=left;verticalAlign=top;spacingLeft=4;spacingRight=4;overflow=hidden;rotatable=0;points=[[0,0.5],[1,0.5]];portConstraint=eastwest;fontSize=14;" vertex="1" parent="205">
                    <mxGeometry y="112" width="358" height="26" as="geometry"/>
                </mxCell>
                <mxCell id="211" value="+ setIdade(idade: short): void" style="text;align=left;verticalAlign=top;spacingLeft=4;spacingRight=4;overflow=hidden;rotatable=0;points=[[0,0.5],[1,0.5]];portConstraint=eastwest;fontSize=14;" vertex="1" parent="205">
                    <mxGeometry y="138" width="358" height="26" as="geometry"/>
                </mxCell>
                <mxCell id="212" value="+ setCpf(cpf: String): void" style="text;align=left;verticalAlign=top;spacingLeft=4;spacingRight=4;overflow=hidden;rotatable=0;points=[[0,0.5],[1,0.5]];portConstraint=eastwest;fontSize=14;" vertex="1" parent="205">
                    <mxGeometry y="164" width="358" height="26" as="geometry"/>
                </mxCell>
                <mxCell id="213" value="+ getNome(): String" style="text;align=left;verticalAlign=top;spacingLeft=4;spacingRight=4;overflow=hidden;rotatable=0;points=[[0,0.5],[1,0.5]];portConstraint=eastwest;fontSize=14;" vertex="1" parent="205">
                    <mxGeometry y="190" width="358" height="26" as="geometry"/>
                </mxCell>
                <mxCell id="214" value="+ getCpf(): String" style="text;align=left;verticalAlign=top;spacingLeft=4;spacingRight=4;overflow=hidden;rotatable=0;points=[[0,0.5],[1,0.5]];portConstraint=eastwest;fontSize=14;" vertex="1" parent="205">
                    <mxGeometry y="216" width="358" height="26" as="geometry"/>
                </mxCell>
                <mxCell id="215" value="+ getIdade(): String" style="text;align=left;verticalAlign=top;spacingLeft=4;spacingRight=4;overflow=hidden;rotatable=0;points=[[0,0.5],[1,0.5]];portConstraint=eastwest;fontSize=14;" vertex="1" parent="205">
                    <mxGeometry y="242" width="358" height="26" as="geometry"/>
                </mxCell>
                <mxCell id="216" value="+ toString(): String" style="text;align=left;verticalAlign=top;spacingLeft=4;spacingRight=4;overflow=hidden;rotatable=0;points=[[0,0.5],[1,0.5]];portConstraint=eastwest;fontSize=14;fontStyle=2" vertex="1" parent="205">
                    <mxGeometry y="268" width="358" height="26" as="geometry"/>
                </mxCell>
                <mxCell id="217" style="edgeStyle=none;html=1;startArrow=none;startFill=0;endArrow=block;endFill=0;startSize=24;endSize=24;fontSize=14;strokeWidth=2;entryX=0.472;entryY=1.035;entryDx=0;entryDy=0;entryPerimeter=0;" edge="1" parent="1" target="216">
                    <mxGeometry relative="1" as="geometry">
                        <mxPoint x="1019" y="404" as="targetPoint"/>
                        <mxPoint x="1019" y="523.9999999999995" as="sourcePoint"/>
                    </mxGeometry>
                </mxCell>
            </root>
        </mxGraphModel>
    </diagram>
</mxfile>